<svg width="250" height="367" viewBox="0 0 361 367" fill="none" xmlns="http://www.w3.org/2000/svg">
<path fill-rule="evenodd" clip-rule="evenodd" d="M167.22 2.62536C202.872 12.8373 203.86 66.525 236.312 83.9052C269.397 101.624 321.148 72.5936 347.111 98.9685C371.207 123.446 358.732 165.794 348.549 197.919C339.596 226.166 314.828 245.918 293.696 267.488C276.569 284.971 260.032 303.902 236.519 312.274C214.506 320.112 189.619 305.748 167.22 312.52C130.437 323.641 100.516 381.515 66.831 363.577C33.4136 345.782 75.0411 290.213 61.3598 256.148C50.8899 230.079 4.3535 225.563 0.298325 197.919C-3.61937 171.213 32.1545 154.463 42.7765 129.468C55.7021 99.0527 45.5847 59.9834 69.1036 36.0109C93.2292 11.4201 133.385 -7.06602 167.22 2.62536Z" fill="#C4C4C4"/>
</svg>
