<svg width="338" height="430" viewBox="0 0 429 430" fill="none" xmlns="http://www.w3.org/2000/svg">
<path fill-rule="evenodd" clip-rule="evenodd" d="M256.582 65.1117C298.764 67.424 328.091 4.08128 369.03 14.1741C406.384 23.3828 422.644 70.6201 428.389 107.467C433.627 141.058 403.591 169.426 398.479 203.034C393.392 236.477 423.254 278.281 398.741 302.387C373.704 327.007 324.355 288.017 293.83 305.94C244.315 335.012 239.407 434.809 181.704 429.819C129.851 425.335 160.59 330.289 127.367 291.545C95.4057 254.271 10.3781 266.383 0.811637 218.861C-8.55061 172.354 65.6574 150.792 90.851 110.15C112.029 75.9855 95.9625 12.1588 135.627 1.37968C180.746 -10.8816 209.789 62.5467 256.582 65.1117Z" fill="#C4C4C4"/>
</svg>
