<svg width="320" height="417" viewBox="0 0 424 417" fill="none" xmlns="http://www.w3.org/2000/svg">
<path fill-rule="evenodd" clip-rule="evenodd" d="M215.946 8.71782C247.651 16.9465 265.047 49.1093 294.76 62.321C324.653 75.6128 364.916 65.2095 389.527 85.8995C413.93 106.415 425.107 140.244 423.914 170.898C422.75 200.798 386.289 221.138 383.106 250.909C379.283 286.666 418.51 322.182 404.172 355.526C390.933 386.315 349.399 398.638 315.429 408.299C283.301 417.437 246.629 421.816 215.946 409.058C185.762 396.508 183.755 347.151 151.574 340.169C105.647 330.204 41.7094 401.357 14.5285 365.357C-13.6351 328.055 82.613 289.952 79.2715 244.407C76.6658 208.893 -3.77907 204.635 0.138546 169.226C3.7742 136.366 72.723 150.66 92.6618 123.381C115.055 92.7438 84.6547 41.2665 112.795 15.0939C137.529 -7.91019 182.323 -0.00885391 215.946 8.71782Z" fill="#C4C4C4"/>
</svg>
